<svg version="1.1" id="Layer_1" xmlns="http://www.w3.org/2000/svg" xmlns:xlink="http://www.w3.org/1999/xlink" x="0px" y="0px"
	 width="100%" viewBox="0 0 348 348" enable-background="new 0 0 348 348" xml:space="preserve">
<path fill="#000000" opacity="1.000000" stroke="none" 
	d="
M210.000000,349.000000 
	C140.000015,349.000000 70.500023,349.000000 1.000028,349.000000 
	C1.000019,233.000031 1.000019,117.000069 1.000009,1.000075 
	C116.999947,1.000050 232.999893,1.000050 348.999878,1.000025 
	C348.999939,116.999931 348.999939,232.999863 348.999969,348.999878 
	C302.833344,349.000000 256.666656,349.000000 210.000000,349.000000 
M59.639095,275.196289 
	C69.778305,278.414948 79.917503,281.633606 90.792625,284.999359 
	C93.935928,287.077515 95.719223,285.546997 96.749847,282.600586 
	C103.740845,262.614349 123.987206,252.609116 142.066559,254.200806 
	C148.226349,254.743118 155.112106,254.315796 160.348999,258.920807 
	C165.605911,263.543457 170.705582,268.344910 175.987701,273.770020 
	C177.505920,276.843262 179.161499,279.857880 180.504272,283.005951 
	C181.887070,286.247955 182.964981,289.619934 184.037689,293.825623 
	C184.037689,299.943481 184.037689,306.061310 184.037689,313.223755 
	C212.451660,321.943512 241.363144,330.815948 270.838013,339.861267 
	C272.169281,335.367096 273.461914,330.662354 274.977966,326.030731 
	C275.723633,323.752686 277.234100,321.693939 277.784546,319.389313 
	C279.070526,314.005219 279.692505,308.452148 281.153717,303.123932 
	C282.125092,299.582031 284.333740,296.397369 285.541534,292.898499 
	C287.823395,286.288116 289.953094,279.613831 291.826477,272.877258 
	C293.524933,266.769806 294.478943,260.445831 296.341339,254.395935 
	C298.574890,247.140411 301.667206,240.151123 303.952087,232.909134 
	C308.067963,219.863693 311.839905,206.710022 315.792297,193.612656 
	C319.779907,180.398560 323.812164,167.197937 328.207642,153.308792 
	C330.090302,147.205734 331.972992,141.102676 333.973602,134.222946 
	C335.980347,128.033035 338.389709,121.935287 339.836121,115.617088 
	C340.645691,112.080666 341.097229,107.543343 339.565125,104.557686 
	C334.448914,94.587555 328.364746,85.114136 322.513580,75.217255 
	C311.359375,80.444084 300.122559,85.709625 288.944458,90.947662 
	C283.600830,81.965721 277.971832,73.326546 273.251099,64.216713 
	C270.946777,59.769901 268.979126,59.386070 264.866150,61.464508 
	C255.566910,66.163795 246.065506,70.463051 236.608383,74.942986 
	C231.526093,66.234261 226.740540,58.060463 221.982162,49.870880 
	C218.853729,44.486629 216.543594,43.879837 210.791306,46.613846 
	C202.107147,50.741325 193.356140,54.728149 184.363007,58.900261 
	C177.980682,48.180244 171.795975,37.792133 165.471161,27.168720 
	C154.165070,32.498093 142.949188,37.784950 131.855240,43.014320 
	C126.237671,33.382576 120.711113,24.117113 115.426094,14.715865 
	C113.861328,11.932386 112.330643,11.382361 109.472305,12.803318 
	C101.975761,16.530046 94.480240,20.303928 86.760025,23.520750 
	C81.007530,25.917669 78.213478,30.600765 76.474754,35.802376 
	C73.196373,45.610058 70.630791,55.655029 67.725876,65.588776 
	C64.474586,76.706978 61.175537,87.811211 57.330200,99.148125 
	C54.195248,109.476105 51.060295,119.804085 47.641159,130.802277 
	C43.545532,143.423279 39.305859,155.999878 35.396183,168.678223 
	C31.737728,180.541901 28.508867,192.537354 24.942827,204.430420 
	C21.717512,215.187134 18.276266,225.878937 14.961615,236.609070 
	C13.307371,241.964172 11.700203,247.334167 10.119289,252.711395 
	C9.519356,254.752014 9.052954,256.831879 8.525686,258.893860 
	C10.549882,259.342072 12.588165,259.736847 14.591182,260.265320 
	C15.367685,260.470184 16.034735,261.060638 16.802021,261.334137 
	C25.674557,264.496552 34.509571,267.775238 43.454731,270.718597 
	C48.524914,272.386932 53.779942,273.493500 59.639095,275.196289 
z"/>
<path fill="#D71921" opacity="1.000000" stroke="none" 
	d="
M327.824860,153.991394 
	C323.812164,167.197937 319.779907,180.398560 315.792297,193.612656 
	C311.839905,206.710022 308.067963,219.863693 303.952087,232.909134 
	C301.667206,240.151123 298.574890,247.140411 296.341339,254.395935 
	C294.478943,260.445831 293.524933,266.769806 291.826477,272.877258 
	C289.953094,279.613831 287.823395,286.288116 285.541534,292.898499 
	C284.333740,296.397369 282.125092,299.582031 281.153717,303.123932 
	C279.692505,308.452148 279.070526,314.005219 277.784546,319.389313 
	C277.234100,321.693939 275.723633,323.752686 274.977966,326.030731 
	C273.461914,330.662354 272.169281,335.367096 270.838013,339.861267 
	C241.363144,330.815948 212.451660,321.943512 184.037689,313.223755 
	C184.037689,306.061310 184.037689,299.943481 184.318176,293.073792 
	C185.334320,284.984680 181.822311,279.090485 178.029068,273.330383 
	C177.771622,272.939423 176.613449,273.141632 175.874176,273.067993 
	C170.705582,268.344910 165.605911,263.543457 160.348999,258.920807 
	C155.112106,254.315796 148.226349,254.743118 142.066559,254.200806 
	C123.987206,252.609116 103.740845,262.614349 96.749847,282.600586 
	C95.719223,285.546997 93.935928,287.077515 90.451614,284.621216 
	C89.725449,283.505157 89.497711,282.286591 88.931580,282.101166 
	C79.995605,279.174225 71.032280,276.325836 62.019783,273.645874 
	C61.190121,273.399170 59.983376,274.420532 58.951721,274.853088 
	C53.779942,273.493500 48.524914,272.386932 43.454731,270.718597 
	C34.509571,267.775238 25.674557,264.496552 16.802021,261.334137 
	C16.034735,261.060638 15.367685,260.470184 14.591182,260.265320 
	C12.588165,259.736847 10.549882,259.342072 8.525688,258.893860 
	C9.052954,256.831879 9.519356,254.752014 10.119289,252.711395 
	C11.700203,247.334167 13.307371,241.964172 14.961615,236.609070 
	C18.276266,225.878937 21.717512,215.187134 24.942827,204.430420 
	C28.508867,192.537354 31.737728,180.541901 35.396183,168.678223 
	C39.305859,155.999878 43.545532,143.423279 48.129517,130.351349 
	C49.184216,129.323212 50.050755,128.842270 50.271389,128.154221 
	C53.102192,119.326546 55.875114,110.479622 58.541218,101.601089 
	C58.769489,100.840904 58.132374,99.820854 57.897263,98.921516 
	C61.175537,87.811211 64.474586,76.706978 67.725876,65.588776 
	C70.630791,55.655029 73.196373,45.610058 76.474754,35.802376 
	C78.213478,30.600765 81.007530,25.917669 86.760025,23.520750 
	C94.480240,20.303928 101.975761,16.530046 109.472305,12.803318 
	C112.330643,11.382361 113.861328,11.932386 115.426094,14.715865 
	C120.711113,24.117113 126.237671,33.382576 131.855240,43.014320 
	C142.949188,37.784950 154.165070,32.498093 165.471161,27.168720 
	C171.795975,37.792133 177.980682,48.180244 184.363007,58.900261 
	C193.356140,54.728149 202.107147,50.741325 210.791306,46.613846 
	C216.543594,43.879837 218.853729,44.486629 221.982162,49.870880 
	C226.740540,58.060463 231.526093,66.234261 236.608383,74.942986 
	C246.065506,70.463051 255.566910,66.163795 264.866150,61.464508 
	C268.979126,59.386070 270.946777,59.769901 273.251099,64.216713 
	C277.971832,73.326546 283.600830,81.965721 288.944458,90.947662 
	C300.122559,85.709625 311.359375,80.444084 322.513580,75.217255 
	C328.364746,85.114136 334.448914,94.587555 339.565125,104.557686 
	C341.097229,107.543343 340.645691,112.080666 339.836121,115.617088 
	C338.389709,121.935287 335.980347,128.033035 333.553345,134.634613 
	C332.558014,135.327301 331.618347,135.477509 331.463409,135.909286 
	C329.620483,141.045334 327.814606,146.199280 326.240723,151.421341 
	C326.048004,152.060791 327.262512,153.124374 327.824860,153.991394 
M178.012665,131.984177 
	C178.012665,131.984177 178.045380,131.917984 178.047775,132.350739 
	C178.384399,132.535156 178.721039,132.719589 179.682434,133.212967 
	C180.801361,135.437256 181.920303,137.661560 183.020813,140.529846 
	C183.030334,140.744171 183.039856,140.958496 183.057678,142.088425 
	C183.058182,169.889923 183.042786,197.691437 183.093750,225.492844 
	C183.097275,227.415588 183.595032,229.337433 183.991821,231.973175 
	C186.590195,239.792923 191.332428,241.772629 198.109344,237.958984 
	C202.128174,235.697464 202.005127,231.838303 202.562485,228.563690 
	C202.848969,229.585083 203.135437,230.606476 203.421921,231.627869 
	C203.953140,201.096069 204.062515,170.637558 203.780716,140.182678 
	C203.753098,137.199417 201.319641,134.238419 199.381836,130.852646 
	C194.423035,119.363731 185.834946,112.093613 173.176453,108.325500 
	C172.519150,108.223976 171.861923,108.034111 171.204544,108.033615 
	C142.395004,108.011726 113.585434,107.993935 84.775986,108.043343 
	C83.560326,108.045425 82.345772,108.690849 80.808228,109.653481 
	C78.826469,111.349060 76.844711,113.044640 74.296913,115.414215 
	C74.220566,116.071831 74.077629,116.729431 74.077393,117.387070 
	C74.064110,154.091400 74.054810,190.795731 74.093994,227.500015 
	C74.095337,228.753510 74.595375,230.006470 74.991829,231.973145 
	C77.570793,239.772217 80.566978,240.955383 90.379883,237.669052 
	C90.652428,237.473007 90.853828,237.220245 90.982193,236.980118 
	C90.982193,236.980118 90.915993,236.959396 91.646461,236.865662 
	C92.432709,235.245575 93.218948,233.625504 94.522720,231.355423 
	C94.682091,229.715973 94.979347,228.076599 94.980492,226.437042 
	C95.003609,193.327393 94.992722,160.217728 95.740784,126.982849 
	C96.497826,127.035896 97.254875,127.088936 98.054321,127.552956 
	C98.204483,127.755775 98.354645,127.958595 98.504807,128.161407 
	C98.665901,127.821594 98.826996,127.481789 99.657005,126.989838 
	C100.108643,127.040550 100.560280,127.091263 101.054314,127.552956 
	C101.204483,127.755775 101.354645,127.958595 101.504822,128.161407 
	C101.665916,127.821602 101.827011,127.481796 102.657005,126.989838 
	C103.108643,127.040550 103.560280,127.091270 104.054321,127.552956 
	C104.204483,127.755775 104.354652,127.958588 104.504814,128.161407 
	C104.665909,127.821602 104.827003,127.481789 105.657005,126.989838 
	C106.108643,127.040550 106.560280,127.091270 107.054321,127.552956 
	C107.204483,127.755775 107.354652,127.958588 107.504814,128.161407 
	C107.665909,127.821602 107.827003,127.481789 108.657005,126.989830 
	C109.108643,127.040543 109.560280,127.091263 110.054321,127.552956 
	C110.204483,127.755775 110.354645,127.958595 110.504814,128.161407 
	C110.665909,127.821594 110.827003,127.481789 111.657005,126.989830 
	C112.108643,127.040550 112.560280,127.091263 113.054321,127.552956 
	C113.204491,127.755768 113.354652,127.958588 113.504807,128.161407 
	C113.665901,127.821594 113.826996,127.481789 114.657005,126.989830 
	C115.108643,127.040550 115.560280,127.091263 116.054321,127.552956 
	C116.204483,127.755775 116.354652,127.958588 116.504822,128.161407 
	C116.665916,127.821602 116.827011,127.481796 117.657005,126.989838 
	C118.108643,127.040550 118.560280,127.091263 119.054321,127.552956 
	C119.204483,127.755775 119.354645,127.958588 119.504814,128.161407 
	C119.665909,127.821602 119.827003,127.481796 120.657005,126.989838 
	C121.108643,127.040550 121.560280,127.091263 122.054321,127.552956 
	C122.204483,127.755775 122.354645,127.958595 122.504814,128.161407 
	C122.665909,127.821602 122.827003,127.481789 123.656975,126.989838 
	C124.108589,127.040550 124.560211,127.091263 125.073204,127.610085 
	C125.952904,128.065460 126.832603,128.520828 127.712296,128.976196 
	C127.803207,128.372971 127.894112,127.769753 128.397919,127.020752 
	C128.397919,127.020752 128.835251,126.999222 128.965576,127.928543 
	C128.976837,129.092026 128.997849,130.255508 128.997925,131.418991 
	C128.999802,163.169281 128.906235,194.920120 129.098206,226.669250 
	C129.127701,231.546921 129.233002,236.707565 135.394272,239.228546 
	C139.930466,241.084595 142.659042,238.460678 146.368271,237.170486 
	C146.869614,235.756790 147.370941,234.343094 147.803162,232.002274 
	C147.854111,226.030838 147.935959,220.059494 147.950745,214.087967 
	C148.021744,185.387573 148.074646,156.687119 148.839722,128.003296 
	C158.034531,128.741470 167.229324,129.479645 176.605270,130.310150 
	C176.605270,130.310150 176.612991,130.513321 176.560837,131.126297 
	C177.067734,131.403397 177.574646,131.680496 178.012665,131.984177 
M227.198883,157.689224 
	C228.831238,163.129578 230.552338,168.545212 232.075653,174.015930 
	C234.516006,182.780121 236.712479,191.613266 239.225662,200.355835 
	C241.239914,207.362808 243.699890,214.242035 245.695862,221.253708 
	C246.445328,223.886505 247.212280,226.909683 246.628922,229.446167 
	C245.317902,235.146561 242.617508,240.543289 241.467545,246.261688 
	C238.699966,260.024078 233.834274,271.203949 217.281570,272.227417 
	C213.355331,272.470123 210.516632,277.993317 211.270035,281.545593 
	C212.220703,286.027863 216.909912,290.546814 220.744553,289.859863 
	C232.724503,287.713806 243.616455,283.396454 251.039688,273.366760 
	C251.110596,273.516876 251.148071,273.704041 251.261810,273.806702 
	C251.374878,273.908783 251.681137,274.003906 251.704239,273.969360 
	C256.147644,267.327087 259.403107,260.275391 259.025726,251.250229 
	C259.106384,250.604462 259.087830,249.927048 259.282166,249.317551 
	C264.169281,233.990067 269.292999,218.734146 273.924377,203.330109 
	C278.600769,187.776367 282.725098,172.057480 287.218628,156.447617 
	C290.771271,144.106232 294.530853,131.824524 298.169037,119.507629 
	C299.395844,115.354271 298.399597,112.001503 294.822784,109.259369 
	C290.546387,105.980911 281.350830,108.569794 280.151825,113.621521 
	C278.727173,119.623741 277.631012,125.717072 275.929596,131.637909 
	C271.327118,147.654343 266.520782,163.612808 261.701324,179.565857 
	C260.424255,183.793137 258.807434,187.917801 257.346588,192.089569 
	C256.975861,192.047714 256.605164,192.005859 256.234436,191.964005 
	C255.451752,188.666595 254.669067,185.369186 254.376343,181.557098 
	C254.479172,180.925323 254.815277,180.223877 254.650421,179.672073 
	C251.285934,168.410583 247.900436,157.154892 244.397278,145.936096 
	C244.050446,144.825348 242.914719,143.960953 241.774979,142.300659 
	C239.199554,133.446671 236.606689,124.597702 234.055298,115.736801 
	C232.541626,110.479912 227.699997,106.640121 222.035446,107.767586 
	C217.797791,108.611038 215.454834,112.288300 215.153381,117.263947 
	C214.972275,118.927490 214.276718,120.735298 214.695969,122.230499 
	C216.929947,130.197495 219.287399,138.138626 221.926498,145.979538 
	C223.203415,149.773361 225.190399,153.328201 227.198883,157.689224 
M73.541519,113.511848 
	C73.541519,113.511848 73.482933,113.539574 73.541519,113.511848 
z"/>
<path fill="#DB252E" opacity="1.000000" stroke="none" 
	d="
M59.295410,275.024658 
	C59.983376,274.420532 61.190121,273.399170 62.019783,273.645874 
	C71.032280,276.325836 79.995605,279.174225 88.931580,282.101166 
	C89.497711,282.286591 89.725449,283.505157 90.083664,284.547668 
	C79.917503,281.633606 69.778305,278.414948 59.295410,275.024658 
z"/>
<path fill="#DB222B" opacity="1.000000" stroke="none" 
	d="
M57.613731,99.034821 
	C58.132374,99.820854 58.769489,100.840904 58.541218,101.601089 
	C55.875114,110.479622 53.102192,119.326546 50.271389,128.154221 
	C50.050755,128.842270 49.184216,129.323212 48.271606,130.016235 
	C51.060295,119.804085 54.195248,109.476105 57.613731,99.034821 
z"/>
<path fill="#DA1A23" opacity="1.000000" stroke="none" 
	d="
M328.016235,153.650085 
	C327.262512,153.124374 326.048004,152.060791 326.240723,151.421341 
	C327.814606,146.199280 329.620483,141.045334 331.463409,135.909286 
	C331.618347,135.477509 332.558014,135.327301 333.494385,135.022949 
	C331.972992,141.102676 330.090302,147.205734 328.016235,153.650085 
z"/>
<path fill="#DA1C24" opacity="1.000000" stroke="none" 
	d="
M175.930939,273.419006 
	C176.613449,273.141632 177.771622,272.939423 178.029068,273.330383 
	C181.822311,279.090485 185.334320,284.984680 184.387482,292.628540 
	C182.964981,289.619934 181.887070,286.247955 180.504272,283.005951 
	C179.161499,279.857880 177.505920,276.843262 175.930939,273.419006 
z"/>
<path fill="#000000" opacity="1.000000" stroke="none" 
	d="
M74.862953,114.740219 
	C76.844711,113.044640 78.826469,111.349060 81.326233,109.426567 
	C83.228462,109.133957 84.612671,109.011559 85.996925,109.010963 
	C112.599922,108.999619 139.202911,109.007179 165.805908,108.995407 
	C168.468109,108.994225 171.130295,108.893486 173.792480,108.838959 
	C185.834946,112.093613 194.423035,119.363731 199.702301,131.435730 
	C200.681946,135.508301 201.888351,138.993790 201.913971,142.487946 
	C202.123108,171.007584 202.111801,199.528824 202.167511,228.049591 
	C202.005127,231.838303 202.128174,235.697464 198.109344,237.958984 
	C191.332428,241.772629 186.590195,239.792923 183.986786,231.124557 
	C183.933868,200.522125 183.885986,170.768311 183.854584,140.752136 
	C183.593796,140.288467 183.316513,140.087158 183.039230,139.885849 
	C181.920303,137.661560 180.801361,135.437256 179.282135,132.822830 
	C178.603012,132.261124 178.324203,132.089554 178.045380,131.917984 
	C178.045380,131.917984 178.012665,131.984177 177.950684,131.716125 
	C177.463470,131.136490 177.038223,130.824905 176.612991,130.513321 
	C176.612991,130.513321 176.605270,130.310150 176.326385,129.982300 
	C173.477951,128.770905 170.938171,127.249649 168.333069,127.128059 
	C161.569809,126.812386 154.777847,127.112221 147.581497,127.291733 
	C147.162491,162.650238 147.159317,197.883423 147.076324,233.439453 
	C146.657486,234.785675 146.318451,235.809067 145.979431,236.832474 
	C142.659042,238.460678 139.930466,241.084595 135.394272,239.228546 
	C129.233002,236.707565 129.127701,231.546921 129.098206,226.669250 
	C128.906235,194.920120 128.999802,163.169281 128.997925,131.418991 
	C128.997849,130.255508 128.976837,129.092026 128.784851,127.042007 
	C117.565117,126.108376 106.526100,126.041389 95.487198,126.056885 
	C94.712296,126.057968 93.938248,126.668922 93.095734,127.459106 
	C93.026276,162.684006 93.024887,197.446060 93.001076,232.541107 
	C92.291100,234.235870 91.603554,235.597641 90.916000,236.959396 
	C90.915993,236.959396 90.982193,236.980118 90.742523,237.025421 
	C90.314659,237.338943 90.126465,237.607162 89.938278,237.875397 
	C80.566978,240.955383 77.570793,239.772217 74.986786,231.124542 
	C74.942154,191.764038 74.902550,153.252121 74.862953,114.740219 
z"/>
<path fill="#000000" opacity="1.000000" stroke="none" 
	d="
M215.820496,117.023323 
	C215.454834,112.288300 217.797791,108.611038 222.035446,107.767586 
	C227.699997,106.640121 232.541626,110.479912 234.055298,115.736801 
	C236.606689,124.597702 239.199554,133.446671 241.899246,143.029327 
	C242.336304,144.665695 242.675812,145.565201 242.957840,146.482376 
	C246.605453,158.344040 250.244888,170.208221 253.886383,182.071777 
	C254.669067,185.369186 255.451752,188.666595 256.234436,191.964005 
	C256.605164,192.005859 256.975861,192.047714 257.346588,192.089569 
	C258.807434,187.917801 260.424255,183.793137 261.701324,179.565857 
	C266.520782,163.612808 271.327118,147.654343 275.929596,131.637909 
	C277.631012,125.717072 278.727173,119.623741 280.151825,113.621521 
	C281.350830,108.569794 290.546387,105.980911 294.822784,109.259369 
	C298.399597,112.001503 299.395844,115.354271 298.169037,119.507629 
	C294.530853,131.824524 290.771271,144.106232 287.218628,156.447617 
	C282.725098,172.057480 278.600769,187.776367 273.924377,203.330109 
	C269.292999,218.734146 264.169281,233.990067 259.282166,249.317551 
	C259.087830,249.927048 259.106384,250.604462 258.907318,251.976593 
	C256.172516,259.424377 253.556107,266.145782 250.939697,272.867218 
	C243.616455,283.396454 232.724503,287.713806 220.744553,289.859863 
	C216.909912,290.546814 212.220703,286.027863 211.270035,281.545593 
	C210.516632,277.993317 213.355331,272.470123 217.281570,272.227417 
	C233.834274,271.203949 238.699966,260.024078 241.467545,246.261688 
	C242.617508,240.543289 245.317902,235.146561 246.628922,229.446167 
	C247.212280,226.909683 246.445328,223.886505 245.695862,221.253708 
	C243.699890,214.242035 241.239914,207.362808 239.225662,200.355835 
	C236.712479,191.613266 234.516006,182.780121 232.075653,174.015930 
	C230.552338,168.545212 228.831238,163.129578 227.087234,156.956406 
	C225.559418,151.590134 224.057953,146.980667 222.745743,142.317963 
	C220.377625,133.903229 218.122696,125.456619 215.820496,117.023323 
z"/>
<path fill="#D90E17" opacity="1.000000" stroke="none" 
	d="
M202.365005,228.306641 
	C202.111801,199.528824 202.123108,171.007584 201.913971,142.487946 
	C201.888351,138.993790 200.681946,135.508301 200.012833,131.642944 
	C201.319641,134.238419 203.753098,137.199417 203.780716,140.182678 
	C204.062515,170.637558 203.953140,201.096069 203.421921,231.627869 
	C203.135437,230.606476 202.848969,229.585083 202.365005,228.306641 
z"/>
<path fill="#E19499" opacity="1.000000" stroke="none" 
	d="
M74.579933,115.077217 
	C74.902550,153.252121 74.942154,191.764038 74.922363,230.767822 
	C74.595375,230.006470 74.095337,228.753510 74.093994,227.500015 
	C74.054810,190.795731 74.064110,154.091400 74.077393,117.387070 
	C74.077629,116.729431 74.220566,116.071831 74.579933,115.077217 
z"/>
<path fill="#E0C7C9" opacity="1.000000" stroke="none" 
	d="
M147.156143,233.116608 
	C147.159317,197.883423 147.162491,162.650238 147.592453,127.500664 
	C148.019241,127.584267 148.133957,127.986694 148.133957,127.986694 
	C148.074646,156.687119 148.021744,185.387573 147.950745,214.087967 
	C147.935959,220.059494 147.854111,226.030838 147.663635,232.531586 
	C147.524094,233.060883 147.156143,233.116608 147.156143,233.116608 
z"/>
<path fill="#DA0710" opacity="1.000000" stroke="none" 
	d="
M94.988663,127.108055 
	C94.992722,160.217728 95.003609,193.327393 94.980492,226.437042 
	C94.979347,228.076599 94.682091,229.715973 94.258614,231.675186 
	C93.994507,231.994949 93.983467,231.984879 93.988785,231.517670 
	C94.013931,196.404434 94.033745,161.758423 94.286987,127.035980 
	C94.520409,126.959541 94.988663,127.108055 94.988663,127.108055 
z"/>
<path fill="#E0C6C8" opacity="1.000000" stroke="none" 
	d="
M173.484467,108.582230 
	C171.130295,108.893486 168.468109,108.994225 165.805908,108.995407 
	C139.202911,109.007179 112.599922,108.999619 85.996925,109.010963 
	C84.612671,109.011559 83.228462,109.133957 81.487465,109.118111 
	C82.345772,108.690849 83.560326,108.045425 84.775986,108.043343 
	C113.585434,107.993935 142.395004,108.011726 171.204544,108.033615 
	C171.861923,108.034111 172.519150,108.223976 173.484467,108.582230 
z"/>
<path fill="#E19499" opacity="1.000000" stroke="none" 
	d="
M183.838104,141.014496 
	C183.885986,170.768311 183.933868,200.522125 183.922363,230.767822 
	C183.595032,229.337433 183.097275,227.415588 183.093750,225.492844 
	C183.042786,197.691437 183.058182,169.889923 183.246857,141.571655 
	C183.436020,141.054901 183.838104,141.014496 183.838104,141.014496 
z"/>
<path fill="#DB1E27" opacity="1.000000" stroke="none" 
	d="
M215.486938,117.143631 
	C218.122696,125.456619 220.377625,133.903229 222.745743,142.317963 
	C224.057953,146.980667 225.559418,151.590134 226.915741,156.607422 
	C225.190399,153.328201 223.203415,149.773361 221.926498,145.979538 
	C219.287399,138.138626 216.929947,130.197495 214.695969,122.230499 
	C214.276718,120.735298 214.972275,118.927490 215.486938,117.143631 
z"/>
<path fill="#DB1E26" opacity="1.000000" stroke="none" 
	d="
M254.131363,181.814438 
	C250.244888,170.208221 246.605453,158.344040 242.957840,146.482376 
	C242.675812,145.565201 242.336304,144.665695 242.084320,143.370102 
	C242.914719,143.960953 244.050446,144.825348 244.397278,145.936096 
	C247.900436,157.154892 251.285934,168.410583 254.650421,179.672073 
	C254.815277,180.223877 254.479172,180.925323 254.131363,181.814438 
z"/>
<path fill="#DA0912" opacity="1.000000" stroke="none" 
	d="
M148.486847,127.994995 
	C148.133957,127.986694 148.019241,127.584267 148.008286,127.375336 
	C154.777847,127.112221 161.569809,126.812386 168.333069,127.128059 
	C170.938171,127.249649 173.477951,128.770905 176.235809,129.936127 
	C167.229324,129.479645 158.034531,128.741470 148.486847,127.994995 
z"/>
<path fill="#DA1921" opacity="1.000000" stroke="none" 
	d="
M250.989685,273.117004 
	C253.556107,266.145782 256.172516,259.424377 258.981506,252.371582 
	C259.403107,260.275391 256.147644,267.327087 251.704239,273.969360 
	C251.681137,274.003906 251.374878,273.908783 251.261810,273.806702 
	C251.148071,273.704041 251.110596,273.516876 250.989685,273.117004 
z"/>
<path fill="#EEEEEE" opacity="1.000000" stroke="none" 
	d="
M95.364723,127.045456 
	C94.988663,127.108055 94.520409,126.959541 94.068146,126.979324 
	C93.615883,126.999100 93.163803,126.996292 93.163803,126.996292 
	C93.938248,126.668922 94.712296,126.057968 95.487198,126.056885 
	C106.526100,126.041389 117.565117,126.108376 128.719681,126.577347 
	C128.835251,126.999222 128.397919,127.020752 127.823814,127.021362 
	C126.503746,127.061974 125.757790,127.101974 125.011826,127.141983 
	C124.560211,127.091263 124.108589,127.040550 123.078476,127.012527 
	C122.499985,127.035210 122.011917,127.141983 122.011917,127.141983 
	C121.560280,127.091263 121.108643,127.040550 120.078491,127.012527 
	C119.499985,127.035210 119.011917,127.141983 119.011917,127.141983 
	C118.560280,127.091263 118.108643,127.040550 117.078491,127.012527 
	C116.499985,127.035210 116.011917,127.141983 116.011917,127.141983 
	C115.560280,127.091263 115.108643,127.040550 114.078491,127.012520 
	C113.499985,127.035210 113.011917,127.141983 113.011917,127.141983 
	C112.560280,127.091263 112.108643,127.040550 111.078491,127.012520 
	C110.499985,127.035210 110.011917,127.141983 110.011917,127.141983 
	C109.560280,127.091263 109.108643,127.040543 108.078491,127.012520 
	C107.499985,127.035210 107.011917,127.141983 107.011917,127.141983 
	C106.560280,127.091270 106.108643,127.040550 105.078491,127.012527 
	C104.499985,127.035210 104.011917,127.141983 104.011917,127.141983 
	C103.560280,127.091270 103.108643,127.040550 102.078491,127.012527 
	C101.499985,127.035210 101.011917,127.141983 101.011917,127.141983 
	C100.560280,127.091263 100.108643,127.040550 99.078491,127.012527 
	C98.499985,127.035210 98.011917,127.141983 98.011917,127.141983 
	C97.254875,127.088936 96.497826,127.035896 95.364723,127.045456 
z"/>
<path fill="#DA0912" opacity="1.000000" stroke="none" 
	d="
M147.076324,233.439453 
	C147.156143,233.116608 147.524094,233.060883 147.698181,232.995148 
	C147.370941,234.343094 146.869614,235.756790 146.173843,237.001480 
	C146.318451,235.809067 146.657486,234.785675 147.076324,233.439453 
z"/>
<path fill="#DA0710" opacity="1.000000" stroke="none" 
	d="
M91.281235,236.912537 
	C91.603554,235.597641 92.291100,234.235870 93.239990,232.482132 
	C93.501320,232.090164 93.983467,231.984879 93.983467,231.984879 
	C93.983467,231.984879 93.994507,231.994949 93.999847,232.000183 
	C93.218948,233.625504 92.432709,235.245575 91.281235,236.912537 
z"/>
<path fill="#DA0710" opacity="1.000000" stroke="none" 
	d="
M125.042511,127.376030 
	C125.757790,127.101974 126.503746,127.061974 127.617363,127.094254 
	C127.894112,127.769753 127.803207,128.372971 127.712296,128.976196 
	C126.832603,128.520828 125.952904,128.065460 125.042511,127.376030 
z"/>
<path fill="#DA0710" opacity="1.000000" stroke="none" 
	d="
M116.033119,127.347473 
	C116.011917,127.141983 116.499985,127.035210 116.744049,127.088593 
	C116.827011,127.481796 116.665916,127.821602 116.504822,128.161407 
	C116.354652,127.958588 116.204483,127.755775 116.033119,127.347473 
z"/>
<path fill="#DA0710" opacity="1.000000" stroke="none" 
	d="
M98.033119,127.347473 
	C98.011917,127.141983 98.499985,127.035210 98.744034,127.088593 
	C98.826996,127.481789 98.665901,127.821594 98.504807,128.161407 
	C98.354645,127.958595 98.204483,127.755775 98.033119,127.347473 
z"/>
<path fill="#DA0710" opacity="1.000000" stroke="none" 
	d="
M101.033112,127.347473 
	C101.011917,127.141983 101.499985,127.035210 101.744049,127.088593 
	C101.827011,127.481796 101.665916,127.821602 101.504814,128.161407 
	C101.354645,127.958595 101.204483,127.755775 101.033112,127.347473 
z"/>
<path fill="#DA0710" opacity="1.000000" stroke="none" 
	d="
M104.033119,127.347473 
	C104.011917,127.141983 104.499985,127.035210 104.744041,127.088593 
	C104.827003,127.481789 104.665909,127.821602 104.504814,128.161407 
	C104.354652,127.958588 104.204483,127.755775 104.033119,127.347473 
z"/>
<path fill="#DA0912" opacity="1.000000" stroke="none" 
	d="
M178.046570,132.134369 
	C178.324203,132.089554 178.603012,132.261124 178.969757,132.668350 
	C178.721039,132.719589 178.384399,132.535156 178.046570,132.134369 
z"/>
<path fill="#DA0710" opacity="1.000000" stroke="none" 
	d="
M107.033119,127.347473 
	C107.011917,127.141983 107.499985,127.035210 107.744041,127.088593 
	C107.827003,127.481789 107.665909,127.821602 107.504814,128.161407 
	C107.354652,127.958588 107.204483,127.755775 107.033119,127.347473 
z"/>
<path fill="#DA0912" opacity="1.000000" stroke="none" 
	d="
M176.586914,130.819809 
	C177.038223,130.824905 177.463470,131.136490 177.985123,131.702835 
	C177.574646,131.680496 177.067734,131.403397 176.586914,130.819809 
z"/>
<path fill="#DA0710" opacity="1.000000" stroke="none" 
	d="
M110.033119,127.347473 
	C110.011917,127.141983 110.499985,127.035210 110.744041,127.088593 
	C110.827003,127.481789 110.665909,127.821594 110.504814,128.161407 
	C110.354645,127.958595 110.204483,127.755775 110.033119,127.347473 
z"/>
<path fill="#DA0710" opacity="1.000000" stroke="none" 
	d="
M122.033119,127.347473 
	C122.011917,127.141983 122.499985,127.035210 122.744041,127.088593 
	C122.827003,127.481789 122.665909,127.821602 122.504814,128.161407 
	C122.354645,127.958595 122.204483,127.755775 122.033119,127.347473 
z"/>
<path fill="#DA0710" opacity="1.000000" stroke="none" 
	d="
M119.033119,127.347473 
	C119.011917,127.141983 119.499985,127.035210 119.744041,127.088593 
	C119.827003,127.481796 119.665909,127.821602 119.504814,128.161407 
	C119.354645,127.958588 119.204483,127.755775 119.033119,127.347473 
z"/>
<path fill="#DA0710" opacity="1.000000" stroke="none" 
	d="
M113.033119,127.347473 
	C113.011917,127.141983 113.499985,127.035210 113.744034,127.088593 
	C113.826996,127.481789 113.665901,127.821594 113.504807,128.161407 
	C113.354652,127.958588 113.204491,127.755768 113.033119,127.347473 
z"/>
<path fill="#DA0710" opacity="1.000000" stroke="none" 
	d="
M183.854584,140.752136 
	C183.838104,141.014496 183.436020,141.054901 183.242706,141.113861 
	C183.039856,140.958496 183.030334,140.744171 183.030029,140.207855 
	C183.316513,140.087158 183.593796,140.288467 183.854584,140.752136 
z"/>
<path fill="#DA0710" opacity="1.000000" stroke="none" 
	d="
M90.159081,237.772217 
	C90.126465,237.607162 90.314659,237.338943 90.743469,236.990738 
	C90.853828,237.220245 90.652428,237.473007 90.159081,237.772217 
z"/>
<path fill="#DA0710" opacity="1.000000" stroke="none" 
	d="
M73.512222,113.525711 
	C73.482933,113.539574 73.541519,113.511848 73.512222,113.525711 
z"/>
<path fill="#DE5058" opacity="1.000000" stroke="none" 
	d="
M93.988785,231.517670 
	C93.983467,231.984879 93.501320,232.090164 93.262405,232.149139 
	C93.024887,197.446060 93.026276,162.684006 93.095734,127.459114 
	C93.163803,126.996292 93.615883,126.999100 93.834724,127.055756 
	C94.033745,161.758423 94.013931,196.404434 93.988785,231.517670 
z"/>
</svg>